<svg width="19" height="19" viewBox="0 0 19 19" fill="none" xmlns="http://www.w3.org/2000/svg">
<path d="M16.5776 6.3185C16.7043 5.87405 16.7317 5.40719 16.658 4.95095C16.5843 4.49472 16.4113 4.06025 16.1511 3.67827C15.891 3.29629 15.5501 2.97615 15.1526 2.74047C14.755 2.50479 14.3106 2.35934 13.8506 2.3144C13.666 1.78485 13.3214 1.32578 12.8645 1.00071C12.4075 0.675647 11.8608 0.50067 11.3 0.5C10.6336 0.502257 9.99195 0.752509 9.5 1.202C9.00805 0.752509 8.36638 0.502257 7.7 0.5C6.5291 0.5 5.531 1.2479 5.1575 2.3135C4.69673 2.35731 4.25125 2.50198 3.85265 2.73725C3.45405 2.97251 3.11211 3.29261 2.85109 3.67483C2.59006 4.05705 2.41634 4.49203 2.34225 4.94891C2.26817 5.40579 2.29553 5.87338 2.4224 6.3185C1.84476 6.62605 1.36108 7.08415 1.02264 7.64426C0.684205 8.20436 0.50361 8.8456 0.5 9.5C0.5 10.4675 0.8852 11.3774 1.5548 12.0488C1.45149 12.3896 1.39932 12.7439 1.4 13.1C1.4 14.8613 2.6708 16.331 4.3754 16.6406C4.6261 17.1933 5.03029 17.6624 5.5399 17.992C6.04951 18.3217 6.64308 18.498 7.25 18.5C8.1311 18.5 8.9276 18.1337 9.5 17.5469C9.79203 17.8484 10.1417 18.0882 10.5282 18.2519C10.9147 18.4157 11.3302 18.5 11.75 18.5C12.356 18.4989 12.9488 18.3235 13.4579 17.9948C13.9669 17.666 14.3707 17.1978 14.621 16.646C15.1232 16.5575 15.6008 16.3634 16.0225 16.0767C16.4441 15.79 16.8001 15.4171 17.0671 14.9826C17.334 14.5481 17.5057 14.062 17.5709 13.5563C17.636 13.0505 17.5932 12.5367 17.4452 12.0488C17.7799 11.7142 18.0454 11.3168 18.2264 10.8794C18.4074 10.4421 18.5004 9.97333 18.5 9.5C18.4964 8.8456 18.3158 8.20436 17.9774 7.64426C17.6389 7.08415 17.1552 6.62605 16.5776 6.3185ZM7.25 16.7C6.6101 16.7 6.053 16.2464 5.927 15.6218L5.7362 14.9H5C4.0073 14.9 3.2 14.0927 3.2 13.1C3.2 12.7832 3.2765 12.4862 3.4277 12.2171L3.8381 11.4827L3.1325 11.0237C2.87766 10.8593 2.668 10.6338 2.52259 10.3677C2.37719 10.1015 2.30067 9.80326 2.3 9.5C2.3 8.6207 2.9507 7.8584 3.8138 7.7252L5.3375 7.4912L4.3844 6.2798C4.21467 6.06098 4.11624 5.79532 4.10241 5.51874C4.08859 5.24215 4.16005 4.968 4.30712 4.73335C4.45419 4.49871 4.66978 4.31489 4.92473 4.20676C5.17968 4.09864 5.46168 4.07142 5.7326 4.1288L6.8 4.2863V3.2C6.8 2.96131 6.89482 2.73239 7.0636 2.5636C7.23239 2.39482 7.46131 2.3 7.7 2.3C7.93869 2.3 8.16761 2.39482 8.3364 2.5636C8.50518 2.73239 8.6 2.96131 8.6 3.2V15.35C8.6 16.0943 7.9943 16.7 7.25 16.7ZM15.8675 11.0228L15.1619 11.4818L15.5723 12.2162C15.7235 12.4874 15.7994 12.782 15.8 13.1C15.8 14.0927 14.9927 14.9 13.955 14.9H13.2188L13.073 15.6218C13.0104 15.9264 12.8446 16.2 12.6035 16.3965C12.3624 16.5929 12.061 16.7001 11.75 16.7C11.0057 16.7 10.4 16.0943 10.4 15.35V3.2C10.4 2.7032 10.8032 2.3 11.3 2.3C11.7968 2.3 12.2 2.7032 12.2 3.245V4.3313L13.2674 4.1288C13.5383 4.07142 13.8203 4.09864 14.0753 4.20676C14.3302 4.31489 14.5458 4.49871 14.6929 4.73335C14.84 4.968 14.9114 5.24215 14.8976 5.51874C14.8838 5.79532 14.7853 6.06098 14.6156 6.2798L13.6625 7.4921L15.1862 7.7261C15.608 7.79403 15.9919 8.00977 16.2692 8.33475C16.5465 8.65974 16.6992 9.07277 16.7 9.5C16.7 10.1147 16.3886 10.6835 15.8675 11.0228Z" fill="#6F7187"/>
</svg>
