<svg width="18" height="18" viewBox="0 0 18 18" fill="none" xmlns="http://www.w3.org/2000/svg">
<path d="M3 6.75V8.25H15V6.75H3ZM16.5 8.25C16.5 9.07845 15.8285 9.75 15 9.75H3C2.17157 9.75 1.5 9.07845 1.5 8.25V6.75C1.5 5.92157 2.17157 5.25 3 5.25H15C15.8285 5.25 16.5 5.92157 16.5 6.75V8.25Z" fill="#B0B1BD"/>
<path d="M8.25 15.75V6C8.25 5.58579 8.58578 5.25 9 5.25C9.41422 5.25 9.75 5.58579 9.75 6V15.75C9.75 16.1642 9.41422 16.5 9 16.5C8.58578 16.5 8.25 16.1642 8.25 15.75Z" fill="#B0B1BD"/>
<path d="M3.00005 14.25V9C3.00005 8.58578 3.33584 8.25 3.75005 8.25C4.16426 8.25 4.50005 8.58578 4.50005 9V14.25L4.50371 14.324C4.52072 14.4957 4.59667 14.6572 4.71977 14.7803C4.86043 14.921 5.05113 15 5.25005 15H12.75C12.9489 15 13.1397 14.921 13.2803 14.7803C13.421 14.6396 13.5 14.4489 13.5 14.25V9C13.5 8.58578 13.8358 8.25 14.25 8.25C14.6643 8.25 15 8.58578 15 9V14.25C15 14.8468 14.7628 15.4189 14.3409 15.8408C13.9189 16.2628 13.3468 16.5 12.75 16.5H5.25005C4.65331 16.5 4.08119 16.2628 3.65923 15.8408C3.29008 15.4717 3.06223 14.9876 3.01103 14.4727L3.00005 14.25Z" fill="#B0B1BD"/>
<path d="M13.5 4.12463C13.5 3.82638 13.3813 3.54012 13.1704 3.32922C12.9859 3.14474 12.7438 3.03108 12.4863 3.00549L12.375 2.99963C12.3707 2.99963 12.3662 2.99971 12.3618 2.99963C11.9069 2.99174 11.3928 3.20912 10.8978 3.75915C10.3989 4.31348 9.97872 5.14706 9.72882 6.17688C9.64715 6.51317 9.3461 6.74963 9.00005 6.74963C8.654 6.74963 8.35295 6.51317 8.27127 6.17688C8.02137 5.14706 7.60115 4.31348 7.10234 3.75915C6.66906 3.27773 6.2211 3.05138 5.81108 3.00769L5.63823 2.99963C5.63387 2.99971 5.6294 2.99963 5.62505 2.99963C5.32676 2.99963 5.0406 3.11834 4.82963 3.32922C4.61873 3.54012 4.50014 3.82638 4.50005 4.12463L4.5059 4.23596C4.53145 4.49356 4.64499 4.73613 4.82963 4.92077C5.01419 5.10523 5.25632 5.21892 5.51372 5.2445L5.62505 5.24963L5.70195 5.25403C6.07992 5.29253 6.37488 5.61154 6.37505 5.99963C6.37505 6.38788 6.08003 6.70745 5.70195 6.74597L5.62505 6.74963L5.49467 6.7467C4.84604 6.71447 4.23053 6.44267 3.76909 5.98132C3.30754 5.51978 3.03513 4.90385 3.00298 4.25501L3.00005 4.12463C3.00014 3.42856 3.27689 2.76088 3.76909 2.26868C4.26136 1.7765 4.92893 1.49963 5.62505 1.49963V1.5011C6.61196 1.48827 7.51122 1.97143 8.21712 2.75573C8.51255 3.08402 8.77392 3.46424 9.00005 3.88367C9.22617 3.46424 9.48755 3.08402 9.78297 2.75573C10.4889 1.97143 11.3881 1.48827 12.375 1.5011V1.49963C13.0712 1.49963 13.7388 1.7765 14.231 2.26868C14.7232 2.76088 15 3.42856 15 4.12463C15 4.82083 14.7233 5.48904 14.231 5.98132C13.7388 6.47348 13.0711 6.74963 12.375 6.74963C11.9608 6.74963 11.625 6.41384 11.625 5.99963C11.6252 5.58557 11.961 5.24963 12.375 5.24963C12.6733 5.24963 12.9595 5.13163 13.1704 4.92077C13.3815 4.7098 13.5 4.423 13.5 4.12463Z" fill="#B0B1BD"/>
</svg>
