<svg width="18" height="18" viewBox="0 0 18 18" fill="none" xmlns="http://www.w3.org/2000/svg">
<path d="M16.5 6.375C16.5 5.4799 16.1442 4.6217 15.5112 3.98877C14.8783 3.35584 14.0202 3 13.125 3C12.5402 3 12.0849 3.08249 11.6639 3.26587C11.238 3.45136 10.8 3.76055 10.2803 4.28027C9.98742 4.57317 9.51267 4.57317 9.2198 4.28027C8.70005 3.76055 8.26205 3.45136 7.83623 3.26587C7.4152 3.08249 6.95991 3 6.37505 3C5.47994 3 4.62175 3.35584 3.98882 3.98877C3.35588 4.6217 3.00005 5.4799 3.00005 6.375C3.00005 7.587 3.68968 8.59373 4.61284 9.55223L9.75005 14.6894L14.4749 9.96457L14.8836 9.55155C15.8066 8.5845 16.5 7.5798 16.5 6.375ZM18 6.375C18 8.4297 16.6444 9.9366 15.5296 11.0296L15.5303 11.0302L10.2803 16.2803C9.98742 16.5732 9.51267 16.5732 9.2198 16.2803L3.97856 11.0391L3.5479 10.6099C2.53315 9.56175 1.50005 8.1816 1.50005 6.375C1.50005 5.08207 2.01329 3.84173 2.92754 2.92749C3.84178 2.01325 5.08211 1.5 6.37505 1.5C7.11018 1.5 7.78013 1.60501 8.43537 1.89038C8.89527 2.09071 9.3239 2.37091 9.75005 2.7312C10.1762 2.37091 10.6048 2.09071 11.0647 1.89038C11.72 1.60501 12.3899 1.5 13.125 1.5C14.418 1.5 15.6583 2.01325 16.5726 2.92749C17.4868 3.84173 18 5.08207 18 6.375Z" fill="#B0B1BD"/>
</svg>
