<svg width="18" height="18" viewBox="0 0 18 18" fill="none" xmlns="http://www.w3.org/2000/svg">
<g clip-path="url(#clip0_8_186)">
<path d="M15.7499 9C15.7499 5.27208 12.7279 2.25 8.99994 2.25C5.27202 2.25 2.24994 5.27208 2.24994 9C2.24994 12.728 5.27202 15.75 8.99994 15.75C12.7279 15.75 15.7499 12.728 15.7499 9ZM17.2499 9C17.2499 13.5563 13.5563 17.25 8.99994 17.25C4.44359 17.25 0.749939 13.5563 0.749939 9C0.749939 4.44365 4.44359 0.75 8.99994 0.75C13.5563 0.75 17.2499 4.44365 17.2499 9Z" fill="#B0B1BD"/>
<path d="M7.42023 4.91041C8.03095 4.55155 8.7487 4.42013 9.44687 4.53981C10.145 4.65957 10.7784 5.0226 11.2347 5.56447C11.6908 6.10627 11.9408 6.79207 11.94 7.50025L11.9305 7.71048C11.8349 8.74143 11.0509 9.43188 10.481 9.81175C10.1544 10.0295 9.83297 10.1892 9.59627 10.2945C9.4768 10.3476 9.37577 10.3877 9.30332 10.4153C9.2671 10.4291 9.23755 10.44 9.2161 10.4475C9.20552 10.4513 9.19705 10.4548 9.19052 10.4571C9.1873 10.4582 9.1846 10.4592 9.18242 10.46L9.1795 10.4607L9.17807 10.4615H9.17732L9.10337 10.482C8.73235 10.5652 8.3509 10.3553 8.22812 9.9868C8.09755 9.5944 8.30927 9.16983 8.70122 9.03835V9.0391L8.70272 9.03835C8.70467 9.03768 8.70842 9.03655 8.71367 9.03468C8.72515 9.03063 8.74427 9.02373 8.76932 9.0142C8.81995 8.99493 8.8954 8.9647 8.9869 8.92405C9.172 8.84185 9.41327 8.72088 9.649 8.56375C10.166 8.21905 10.4399 7.852 10.44 7.50025V7.4988L10.4342 7.36696C10.4075 7.06021 10.2873 6.76773 10.0877 6.53053C9.8596 6.25954 9.54257 6.07773 9.19345 6.01784C8.84432 5.958 8.48507 6.02368 8.17975 6.20314C7.87442 6.38258 7.64252 6.66451 7.525 6.99855L7.49567 7.0696C7.33399 7.41373 6.93481 7.58665 6.56842 7.45778C6.17775 7.32034 5.97259 6.89193 6.10993 6.50124L6.1568 6.37672C6.40376 5.76293 6.84769 5.2469 7.42023 4.91041Z" fill="#B0B1BD"/>
<path d="M9.0073 12L9.08418 12.0037C9.46233 12.0421 9.7573 12.3617 9.7573 12.75C9.7573 13.1384 9.46233 13.4579 9.08418 13.4963L9.0073 13.5H8.99995C8.58573 13.5 8.24995 13.1642 8.24995 12.75C8.24995 12.3358 8.58573 12 8.99995 12H9.0073Z" fill="#B0B1BD"/>
</g>
<defs>
<clipPath id="clip0_8_186">
<rect width="18" height="18" fill="white"/>
</clipPath>
</defs>
</svg>
