<svg width="17" height="14" viewBox="0 0 17 14" fill="none" xmlns="http://www.w3.org/2000/svg">
<g clip-path="url(#clip0_10_282)">
<path fill-rule="evenodd" clip-rule="evenodd" d="M1.0625 2.62395V11.3761C1.0625 11.9564 1.28994 12.5129 1.69478 12.9233C2.09962 13.3336 2.6487 13.5641 3.22123 13.5641H14.0149C14.5874 13.5641 15.1365 13.3336 15.5413 12.9233C15.9462 12.5129 16.1736 11.9564 16.1736 11.3761V2.62395C16.1736 2.04364 15.9462 1.48711 15.5413 1.07677C15.1365 0.666437 14.5874 0.435913 14.0149 0.435913H3.22123C2.6487 0.435913 2.09962 0.666437 1.69478 1.07677C1.28994 1.48711 1.0625 2.04364 1.0625 2.62395Z" stroke="#B0B1BD" stroke-width="1.40659" stroke-linecap="round" stroke-linejoin="round"/>
<path d="M3.1875 3.76929L8.5 7.00006L13.8125 3.76929" stroke="#B0B1BD" stroke-width="1.38462" stroke-linecap="round" stroke-linejoin="round"/>
</g>
<defs>
<clipPath id="clip0_10_282">
<rect width="17" height="14" fill="white"/>
</clipPath>
</defs>
</svg>
