<svg width="26" height="26" viewBox="0 0 26 26" fill="none" xmlns="http://www.w3.org/2000/svg">
<rect width="26" height="26" rx="13" fill="#6128FF"/>
<path d="M21.6667 22.75C21.6667 19.7589 17.7862 17.3333 13 17.3333C8.21383 17.3333 4.33333 19.7589 4.33333 22.75M13 14.0833C11.5634 14.0833 10.1857 13.5127 9.16984 12.4968C8.15401 11.481 7.58333 10.1033 7.58333 8.66667C7.58333 7.23008 8.15401 5.85233 9.16984 4.8365C10.1857 3.82068 11.5634 3.25 13 3.25C14.4366 3.25 15.8143 3.82068 16.8302 4.8365C17.846 5.85233 18.4167 7.23008 18.4167 8.66667C18.4167 10.1033 17.846 11.481 16.8302 12.4968C15.8143 13.5127 14.4366 14.0833 13 14.0833Z" stroke="white" stroke-width="2" stroke-linecap="round" stroke-linejoin="round"/>
</svg>
