<svg width="18" height="18" viewBox="0 0 18 18" fill="none" xmlns="http://www.w3.org/2000/svg">
<g clip-path="url(#clip0_23_93)">
<path d="M16.08 8.28744L9.1875 15.1799C8.34312 16.0243 7.19789 16.4987 6.00375 16.4987C4.80962 16.4987 3.66439 16.0243 2.82 15.1799C1.97562 14.3356 1.50125 13.1903 1.50125 11.9962C1.50125 10.8021 1.97562 9.65682 2.82 8.81244L9.7125 1.91994C10.2754 1.35702 11.0389 1.04077 11.835 1.04077C12.6311 1.04077 13.3946 1.35702 13.9575 1.91994C14.5204 2.48286 14.8367 3.24635 14.8367 4.04244C14.8367 4.83853 14.5204 5.60202 13.9575 6.16494L7.0575 13.0574C6.77604 13.3389 6.3943 13.497 5.99625 13.497C5.59821 13.497 5.21646 13.3389 4.935 13.0574C4.65354 12.776 4.49542 12.3942 4.49542 11.9962C4.49542 11.5981 4.65354 11.2164 4.935 10.9349L11.3025 4.57494" stroke="black" stroke-width="2" stroke-linecap="round" stroke-linejoin="round"/>
</g>
<defs>
<clipPath id="clip0_23_93">
<rect width="18" height="18" fill="white"/>
</clipPath>
</defs>
</svg>
