<svg width="15" height="24" viewBox="0 0 15 24" fill="none" xmlns="http://www.w3.org/2000/svg">
<path d="M0 4.91684C0 4.44718 0.18657 3.99676 0.518667 3.66466C0.850763 3.33257 1.30118 3.146 1.77084 3.146H8.8542C9.089 3.14605 9.31418 3.23936 9.48019 3.40542L13.9073 7.83252C14.0733 7.99853 14.1667 8.2237 14.1667 8.45851V19.0835C14.1667 19.5532 13.9801 20.0036 13.648 20.3357C13.3159 20.6678 12.8655 20.8544 12.3959 20.8544H1.77084C1.30118 20.8544 0.850763 20.6678 0.518667 20.3357C0.18657 20.0036 0 19.5532 0 19.0835V4.91684ZM12.0293 8.45851L8.8542 5.2834V8.45851H12.0293ZM7.08336 4.91684H1.77084V19.0835H12.3959V10.2294H7.96878C7.73395 10.2294 7.50874 10.1361 7.34269 9.97002C7.17664 9.80397 7.08336 9.57876 7.08336 9.34393V4.91684ZM3.54168 12.8856C3.54168 12.6508 3.63496 12.4256 3.80101 12.2595C3.96706 12.0935 4.19227 12.0002 4.4271 12.0002H9.73962C9.97444 12.0002 10.1997 12.0935 10.3657 12.2595C10.5317 12.4256 10.625 12.6508 10.625 12.8856C10.625 13.1204 10.5317 13.3456 10.3657 13.5117C10.1997 13.6777 9.97444 13.771 9.73962 13.771H4.4271C4.19227 13.771 3.96706 13.6777 3.80101 13.5117C3.63496 13.3456 3.54168 13.1204 3.54168 12.8856ZM3.54168 16.4273C3.54168 16.1925 3.63496 15.9673 3.80101 15.8012C3.96706 15.6352 4.19227 15.5419 4.4271 15.5419H9.73962C9.97444 15.5419 10.1997 15.6352 10.3657 15.8012C10.5317 15.9673 10.625 16.1925 10.625 16.4273C10.625 16.6621 10.5317 16.8873 10.3657 17.0534C10.1997 17.2194 9.97444 17.3127 9.73962 17.3127H4.4271C4.19227 17.3127 3.96706 17.2194 3.80101 17.0534C3.63496 16.8873 3.54168 16.6621 3.54168 16.4273Z" fill="black"/>
</svg>
