<svg width="47" height="47" viewBox="0 0 47 47" fill="none" xmlns="http://www.w3.org/2000/svg">
<path d="M0 0H47V47H0V0Z" fill="white"/>
<path d="M47 23.5C47 36.4787 36.4787 47 23.5 47C10.5213 47 0 36.4787 0 23.5C0 10.5213 10.5213 0 23.5 0C36.4787 0 47 10.5213 47 23.5Z" fill="url(#paint0_linear_1_20)"/>
<path d="M16.8253 14.982C16.8253 14.2122 17.6587 13.7311 18.3253 14.116L34.0753 23.2093C34.742 23.5942 34.742 24.5564 34.0753 24.9413L18.3253 34.0346C17.6587 34.4195 16.8253 33.9384 16.8253 33.1686V14.982Z" fill="white"/>
<defs>
<linearGradient id="paint0_linear_1_20" x1="23.5" y1="0" x2="23.5" y2="47" gradientUnits="userSpaceOnUse">
<stop stop-color="#3CA7FF"/>
<stop offset="1" stop-color="#AE5DFF"/>
</linearGradient>
</defs>
</svg>
